<?xml version="1.0" encoding="utf-8"?>
<!-- Generator: Adobe Illustrator 26.5.0, SVG Export Plug-In . SVG Version: 6.00 Build 0)  -->
<svg version="1.1" id="Layer_1" xmlns="http://www.w3.org/2000/svg" xmlns:xlink="http://www.w3.org/1999/xlink" x="0px" y="0px"
	 viewBox="0 0 371.88 103.87" style="enable-background:new 0 0 371.88 103.87;" xml:space="preserve">
<style type="text/css">
	.st0{fill:#002F54;}
</style>
<g>
	<g>
		<path class="st0" d="M128.41,42.08h-17.85v-9.8h47.95v9.8h-17.79v40.91h-12.32V42.08z"/>
		<path class="st0" d="M177.44,42.08h-17.85v-9.8h47.95v9.8h-17.79v40.91h-12.32V42.08z"/>
		<path class="st0" d="M222.02,67.8c1.45,4.38,4.96,7.25,13.37,7.25c7.88,0,10.16-2.41,10.16-5.68c0-3.5-2.34-5.46-13.02-7.28
			c-17.6-3.01-20.8-8.73-20.8-15.53c0-10.13,9.75-15.3,21.74-15.3c17.41,0,22.13,8.95,22.71,14.84h-12.32
			c-0.72-2.51-2.4-5.87-10.77-5.87c-5.86,0-8.83,1.87-8.83,5.14c0,2.93,2.09,4.41,11.61,6.11c19.27,3.46,22.28,9.27,22.28,16.63
			c0,8.79-6.9,15.89-23.91,15.89c-15.87,0-23.01-7.08-24.55-16.21H222.02z"/>
	</g>
</g>
</svg>
