<?xml version="1.0" encoding="utf-8"?>
<!-- Generator: Adobe Illustrator 26.5.0, SVG Export Plug-In . SVG Version: 6.00 Build 0)  -->
<svg version="1.1" id="Layer_1" xmlns="http://www.w3.org/2000/svg" xmlns:xlink="http://www.w3.org/1999/xlink" x="0px" y="0px"
	 viewBox="0 0 773.93 169.49" style="enable-background:new 0 0 773.93 169.49;" xml:space="preserve">
<style type="text/css">
	.st0{fill:#002F54;}
	.st1{fill:none;stroke:#002F54;stroke-width:2;stroke-miterlimit:10;}
</style>
<g>
	<g>
		<path class="st0" d="M307.15,41.22H289.3v-9.8h47.95v9.8h-17.79v40.91h-12.32V41.22z"/>
		<path class="st0" d="M370.58,41.22h-17.85v-9.8h47.95v9.8h-17.79v40.91h-12.32V41.22z"/>
		<path class="st0" d="M429.56,66.94c1.45,4.38,4.96,7.25,13.37,7.25c7.88,0,10.16-2.41,10.16-5.68c0-3.5-2.34-5.46-13.02-7.28
			c-17.6-3.01-20.8-8.73-20.8-15.53c0-10.13,9.75-15.3,21.74-15.3c17.41,0,22.13,8.95,22.71,14.84h-12.32
			c-0.72-2.51-2.4-5.87-10.77-5.87c-5.86,0-8.83,1.87-8.83,5.14c0,2.93,2.09,4.41,11.61,6.11c19.27,3.46,22.28,9.27,22.28,16.63
			c0,8.79-6.9,15.89-23.91,15.89c-15.87,0-23.01-7.08-24.55-16.21H429.56z"/>
	</g>
</g>
<g>
	<g>
		<path class="st0" d="M179.55,104.73h-5.81l0.1-0.41h12.05l-0.1,0.41h-5.81l-3.5,16.49h-0.43L179.55,104.73z"/>
		<path class="st0" d="M198.1,112.46h-8.88l-1.75,8.35h9.98l-0.19,0.41h-10.32l3.6-16.9h9.77l-0.1,0.41h-9.34l-1.56,7.32h8.88
			L198.1,112.46z"/>
		<path class="st0" d="M216.46,117.07c-1.34,2.88-3.41,4.39-6.91,4.39c-4.06,0-5.95-3.12-5.95-6.67c0-5.02,2.78-10.71,8.74-10.71
			c3.07,0,5.26,1.68,5.52,5.04h-0.41c-0.29-3.05-2.21-4.63-5.18-4.63c-5.52,0-8.21,5.38-8.21,10.23c0,3.67,1.9,6.34,5.59,6.34
			c2.81,0,4.94-1.06,6.36-3.98H216.46z"/>
		<path class="st0" d="M224.88,104.32h0.46l-1.66,7.73h10.82l1.66-7.73h0.43l-3.6,16.9h-0.43l1.85-8.76h-10.82l-1.85,8.76h-0.46
			L224.88,104.32z"/>
		<path class="st0" d="M239.86,121.22l3.6-16.9h0.62c1.94,4.3,6.91,15.22,7.39,16.39l0.05,0.02c0.02-0.46,1.08-5.28,1.66-8.02
			l1.8-8.4h0.46l-3.6,16.9h-0.6c-1.85-4.15-6.84-15.15-7.44-16.49l-0.02-0.07c-0.31,1.73-0.96,4.75-1.61,7.85l-1.85,8.71H239.86z"/>
		<path class="st0" d="M274.52,111.02c0,4.51-2.38,10.44-8.76,10.44c-4.06,0-6.26-2.88-6.26-7.06c0-4.99,3.07-10.32,8.81-10.32
			C272.4,104.08,274.52,106.94,274.52,111.02z M259.95,114.35c0,4.01,2.06,6.7,5.88,6.7c5.71,0,8.23-5.35,8.23-9.98
			c0-3.91-1.9-6.58-5.86-6.58C263.09,104.49,259.95,109.31,259.95,114.35z"/>
		<path class="st0" d="M282.19,104.32h0.43l-3.5,16.49h9.22l-0.17,0.41h-9.58L282.19,104.32z"/>
		<path class="st0" d="M308.74,111.02c0,4.51-2.38,10.44-8.76,10.44c-4.06,0-6.26-2.88-6.26-7.06c0-4.99,3.07-10.32,8.81-10.32
			C306.63,104.08,308.74,106.94,308.74,111.02z M294.17,114.35c0,4.01,2.06,6.7,5.88,6.7c5.71,0,8.23-5.35,8.23-9.98
			c0-3.91-1.9-6.58-5.86-6.58C297.31,104.49,294.17,109.31,294.17,114.35z"/>
		<path class="st0" d="M325.68,121.22h-0.41c0.1-0.53,0.31-1.56,0.77-3.72c-1.51,3.1-3.79,3.96-6.55,3.96
			c-3.79,0-5.88-2.74-5.88-6.58c0-5.42,3.05-10.8,9.02-10.8c2.93,0,5.47,1.37,5.76,4.78h-0.43c-0.29-2.9-2.38-4.37-5.4-4.37
			c-5.5,0-8.5,5.06-8.5,10.37c0,3.58,1.92,6.19,5.54,6.19c4.18,0,6.19-2.57,7.06-6.53l0.29-1.34h-5.9l0.1-0.41h6.34L325.68,121.22z"
			/>
		<path class="st0" d="M335.98,121.22l1.46-6.91c0.02-0.12,0-0.24-0.05-0.34l-3.67-9.65h0.46c1.2,3.19,3.29,8.64,3.58,9.43
			c0.84-1.06,5.16-6.26,7.75-9.43h0.53l-7.92,9.62c-0.12,0.14-0.19,0.26-0.22,0.36l-1.49,6.91H335.98z"/>
		<path class="st0" d="M362.18,104.73h-5.81l0.1-0.41h12.05l-0.1,0.41h-5.81l-3.5,16.49h-0.43L362.18,104.73z"/>
		<path class="st0" d="M371.81,112.77l-1.78,8.45h-0.46l3.6-16.9h5.14c2.78,0,4.37,1.46,4.37,3.77c0,2.69-1.78,4.27-4.75,4.49
			c1.56,0.31,3.29,1.39,2.52,4.8c-0.6,2.71-0.62,3.38-0.65,3.84h-0.43c-0.02-0.74,0.22-1.82,0.67-3.89
			c0.62-2.95-0.41-4.56-3.96-4.56H371.81z M371.9,112.36h3.96c3.41,0,6.36-0.74,6.36-4.25c0-2.11-1.39-3.38-3.96-3.38h-4.73
			L371.9,112.36z"/>
		<path class="st0" d="M389.09,114.62l-3.84,6.6h-0.48l9.87-16.9h0.5l2.93,16.9h-0.43l-1.15-6.6H389.09z M396.41,114.21
			c-0.96-5.35-1.44-8.57-1.61-9.41h-0.02c-0.31,0.7-2.9,5.04-5.45,9.41H396.41z"/>
		<path class="st0" d="M403.2,121.22l3.6-16.9h0.62c1.94,4.3,6.91,15.22,7.39,16.39l0.05,0.02c0.02-0.46,1.08-5.28,1.66-8.02
			l1.8-8.4h0.46l-3.6,16.9h-0.6c-1.85-4.15-6.84-15.15-7.44-16.49l-0.02-0.07c-0.31,1.73-0.96,4.75-1.61,7.85l-1.85,8.71H403.2z"/>
		<path class="st0" d="M422.35,116.83c0.19,3.12,2.47,4.22,5.02,4.22c3.05,0,5.26-1.44,5.26-4.39c0-1.92-1.22-3.17-4.08-4.15
			c-2.78-0.96-4.25-1.97-4.25-4.08c0-2.47,1.82-4.34,4.99-4.34c3.72,0,4.97,2.21,5.04,4.08h-0.43c-0.14-2.14-1.73-3.67-4.66-3.67
			c-2.76,0-4.46,1.46-4.49,3.89c-0.02,1.78,1.08,2.76,4.01,3.77c3.1,1.06,4.32,2.47,4.32,4.46c0,3.02-2.11,4.85-5.78,4.85
			c-3.29,0-5.26-1.7-5.38-4.63H422.35z"/>
		<path class="st0" d="M441.6,104.32h9.84l-0.1,0.41h-9.38l-1.61,7.56h8.81l-0.1,0.41h-8.81l-1.82,8.52H438L441.6,104.32z"/>
		<path class="st0" d="M469.3,111.02c0,4.51-2.38,10.44-8.76,10.44c-4.06,0-6.26-2.88-6.26-7.06c0-4.99,3.07-10.32,8.81-10.32
			C467.18,104.08,469.3,106.94,469.3,111.02z M454.73,114.35c0,4.01,2.06,6.7,5.88,6.7c5.71,0,8.23-5.35,8.23-9.98
			c0-3.91-1.9-6.58-5.86-6.58C457.87,104.49,454.73,109.31,454.73,114.35z"/>
		<path class="st0" d="M475.61,112.77l-1.78,8.45h-0.46l3.6-16.9h5.14c2.78,0,4.37,1.46,4.37,3.77c0,2.69-1.78,4.27-4.75,4.49
			c1.56,0.31,3.29,1.39,2.52,4.8c-0.6,2.71-0.62,3.38-0.65,3.84h-0.43c-0.02-0.74,0.22-1.82,0.67-3.89
			c0.62-2.95-0.41-4.56-3.96-4.56H475.61z M475.7,112.36h3.96c3.41,0,6.36-0.74,6.36-4.25c0-2.11-1.39-3.38-3.96-3.38h-4.73
			L475.7,112.36z"/>
		<path class="st0" d="M506.9,112.96c0.72-3.43,1.42-6.72,1.82-8.3h-0.05c-1.13,1.97-7.42,11.47-10.7,16.56h-0.48
			c-1.2-5.54-3.22-14.69-3.55-16.49h-0.02c-0.17,1.03-1.2,6.02-1.82,8.9l-1.61,7.58h-0.46l3.6-16.9h0.62
			c1.34,6.31,3.24,14.79,3.55,16.35h0.02c0.79-1.25,6.86-10.51,10.63-16.35h0.72l-3.6,16.9h-0.46L506.9,112.96z"/>
		<path class="st0" d="M515.3,114.62l-3.84,6.6h-0.48l9.87-16.9h0.5l2.93,16.9h-0.43l-1.15-6.6H515.3z M522.62,114.21
			c-0.96-5.35-1.44-8.57-1.61-9.41h-0.02c-0.31,0.7-2.9,5.04-5.45,9.41H522.62z"/>
		<path class="st0" d="M536.5,104.73h-5.81l0.1-0.41h12.05l-0.1,0.41h-5.81l-3.5,16.49h-0.43L536.5,104.73z"/>
		<path class="st0" d="M547.92,104.32l-3.6,16.9h-0.43l3.6-16.9H547.92z"/>
		<path class="st0" d="M567,111.02c0,4.51-2.38,10.44-8.76,10.44c-4.06,0-6.26-2.88-6.26-7.06c0-4.99,3.07-10.32,8.81-10.32
			C564.89,104.08,567,106.94,567,111.02z M552.43,114.35c0,4.01,2.06,6.7,5.88,6.7c5.71,0,8.23-5.35,8.23-9.98
			c0-3.91-1.9-6.58-5.86-6.58C555.58,104.49,552.43,109.31,552.43,114.35z"/>
		<path class="st0" d="M571.08,121.22l3.6-16.9h0.62c1.94,4.3,6.91,15.22,7.39,16.39l0.05,0.02c0.02-0.46,1.08-5.28,1.66-8.02
			l1.8-8.4h0.46l-3.6,16.9h-0.6c-1.85-4.15-6.84-15.15-7.44-16.49l-0.02-0.07c-0.31,1.73-0.96,4.75-1.61,7.85l-1.85,8.71H571.08z"/>
		<path class="st0" d="M309.11,145.63c0.19,3.12,2.47,4.22,5.02,4.22c3.05,0,5.26-1.44,5.26-4.39c0-1.92-1.22-3.17-4.08-4.15
			c-2.78-0.96-4.25-1.97-4.25-4.08c0-2.47,1.82-4.34,4.99-4.34c3.72,0,4.97,2.21,5.04,4.08h-0.43c-0.14-2.14-1.73-3.67-4.66-3.67
			c-2.76,0-4.46,1.46-4.49,3.89c-0.02,1.78,1.08,2.76,4.01,3.77c3.1,1.06,4.32,2.47,4.32,4.46c0,3.02-2.11,4.85-5.78,4.85
			c-3.29,0-5.26-1.71-5.38-4.63H309.11z"/>
		<path class="st0" d="M340.57,139.82c0,4.51-2.38,10.44-8.76,10.44c-4.06,0-6.26-2.88-6.26-7.06c0-4.99,3.07-10.32,8.81-10.32
			C338.46,132.88,340.57,135.74,340.57,139.82z M326.01,143.15c0,4.01,2.06,6.7,5.88,6.7c5.71,0,8.23-5.35,8.23-9.99
			c0-3.91-1.9-6.58-5.86-6.58C329.15,133.29,326.01,138.11,326.01,143.15z"/>
		<path class="st0" d="M348.25,133.12h0.43l-3.5,16.49h9.22l-0.17,0.41h-9.58L348.25,133.12z"/>
		<path class="st0" d="M362.77,133.12l-2.26,10.49c-1.01,4.73,1.61,6.24,4.54,6.24c3.79,0,5.35-1.75,6.26-6.02l2.33-10.71h0.43
			l-2.28,10.66c-0.98,4.61-2.69,6.48-6.82,6.48c-3,0-6-1.56-4.87-6.79l2.21-10.34H362.77z"/>
		<path class="st0" d="M384.21,133.53h-5.81l0.1-0.41h12.05l-0.1,0.41h-5.81l-3.5,16.49h-0.43L384.21,133.53z"/>
		<path class="st0" d="M395.63,133.12l-3.6,16.9h-0.43l3.6-16.9H395.63z"/>
		<path class="st0" d="M414.71,139.82c0,4.51-2.38,10.44-8.76,10.44c-4.06,0-6.26-2.88-6.26-7.06c0-4.99,3.07-10.32,8.81-10.32
			C412.6,132.88,414.71,135.74,414.71,139.82z M400.14,143.15c0,4.01,2.06,6.7,5.88,6.7c5.71,0,8.23-5.35,8.23-9.99
			c0-3.91-1.9-6.58-5.86-6.58C403.28,133.29,400.14,138.11,400.14,143.15z"/>
		<path class="st0" d="M418.79,150.02l3.6-16.9h0.62c1.94,4.3,6.91,15.22,7.39,16.39l0.05,0.02c0.02-0.46,1.08-5.28,1.66-8.02
			l1.8-8.4h0.46l-3.6,16.9h-0.6c-1.85-4.15-6.84-15.15-7.44-16.49l-0.02-0.07c-0.31,1.73-0.96,4.75-1.61,7.85l-1.85,8.71H418.79z"/>
		<path class="st0" d="M437.94,145.63c0.19,3.12,2.47,4.22,5.02,4.22c3.05,0,5.26-1.44,5.26-4.39c0-1.92-1.22-3.17-4.08-4.15
			c-2.78-0.96-4.25-1.97-4.25-4.08c0-2.47,1.82-4.34,4.99-4.34c3.72,0,4.97,2.21,5.04,4.08h-0.43c-0.14-2.14-1.73-3.67-4.66-3.67
			c-2.76,0-4.46,1.46-4.49,3.89c-0.02,1.78,1.08,2.76,4.01,3.77c3.1,1.06,4.32,2.47,4.32,4.46c0,3.02-2.11,4.85-5.78,4.85
			c-3.29,0-5.26-1.71-5.38-4.63H437.94z"/>
	</g>
</g>
<line class="st1" x1="192.14" y1="89.05" x2="564.02" y2="89.05"/>
</svg>
